HIERARCHY
ROOT Bip01
{
  OFFSET 15.7446 31.5610 57.6474
  CHANNELS 6 Xposition Yposition Zposition Zrotation Xrotation Yrotation
  JOINT Bip01_Footsteps
  {
    OFFSET 53.2821 -0.0001 8.1953
    CHANNELS 6 Xposition Yposition Zposition Zrotation Xrotation Yrotation
    End Site
    {
      OFFSET 0 0 0
    }
  }
  JOINT b_Hips
  {
    OFFSET 0.0000 0.0000 0.0000
    CHANNELS 6 Xposition Yposition Zposition Zrotation Xrotation Yrotation
    JOINT b_Spine
    {
      OFFSET 10.4409 -1.6220 0.0000
      CHANNELS 6 Xposition Yposition Zposition Zrotation Xrotation Yrotation
      JOINT b_Spine1
      {
        OFFSET 8.8514 -0.0090 0.0000
        CHANNELS 6 Xposition Yposition Zposition Zrotation Xrotation Yrotation
        JOINT b_Spine2
        {
          OFFSET 11.3035 -0.0088 -0.0000
          CHANNELS 6 Xposition Yposition Zposition Zrotation Xrotation Yrotation
          JOINT b_Spine3
          {
            OFFSET 11.0297 -0.0113 0.0000
            CHANNELS 6 Xposition Yposition Zposition Zrotation Xrotation Yrotation
            JOINT b__Neck
            {
              OFFSET 14.9480 -3.1935 0.0000
              CHANNELS 6 Xposition Yposition Zposition Zrotation Xrotation Yrotation
              JOINT b__Neck1
              {
                OFFSET 5.4958 -0.0043 0.0000
                CHANNELS 6 Xposition Yposition Zposition Zrotation Xrotation Yrotation
                JOINT b__Neck2
                {
                  OFFSET 5.5266 -0.0049 0.0000
                  CHANNELS 6 Xposition Yposition Zposition Zrotation Xrotation Yrotation
                  JOINT b_Head
                  {
                    OFFSET 6.1093 -0.0000 -0.0000
                    CHANNELS 6 Xposition Yposition Zposition Zrotation Xrotation Yrotation
                    JOINT Bip01_HeadNub
                    {
                      OFFSET 28.6688 -0.0000 0.0000
                      CHANNELS 6 Xposition Yposition Zposition Zrotation Xrotation Yrotation
                      End Site
                      {
                        OFFSET 0 0 0
                      }
                    }
                    JOINT Dog_Jaw
                    {
                      OFFSET 0.6075 2.3575 -0.0000
                      CHANNELS 6 Xposition Yposition Zposition Zrotation Xrotation Yrotation
                      End Site
                      {
                        OFFSET 0 0 0
                      }
                    }
                  }
                }
              }
            }
            JOINT b_LeftClav
            {
              OFFSET 10.4683 2.1257 3.5190
              CHANNELS 6 Xposition Yposition Zposition Zrotation Xrotation Yrotation
              JOINT b_LeftArm
              {
                OFFSET 7.3453 0.0000 0.0000
                CHANNELS 6 Xposition Yposition Zposition Zrotation Xrotation Yrotation
                JOINT b_LeftForeArm
                {
                  OFFSET 23.3863 -0.0000 0.0000
                  CHANNELS 6 Xposition Yposition Zposition Zrotation Xrotation Yrotation
                  JOINT b_LeftHand
                  {
                    OFFSET 21.5040 0.0000 0.0000
                    CHANNELS 6 Xposition Yposition Zposition Zrotation Xrotation Yrotation
                    JOINT b__LeftFinger
                    {
                      OFFSET 1.5926 6.2126 -0.0138
                      CHANNELS 6 Xposition Yposition Zposition Zrotation Xrotation Yrotation
                      JOINT Bip01_L_Finger0Nub
                      {
                        OFFSET 23.3657 0.0000 0.0000
                        CHANNELS 6 Xposition Yposition Zposition Zrotation Xrotation Yrotation
                        End Site
                        {
                          OFFSET 0 0 0
                        }
                      }
                    }
                  }
                }
                JOINT Dog_LeftArmor002
                {
                  OFFSET 4.2035 4.4457 12.7354
                  CHANNELS 6 Xposition Yposition Zposition Zrotation Xrotation Yrotation
                  End Site
                  {
                    OFFSET 0 0 0
                  }
                }
              }
            }
            JOINT b_RightClav
            {
              OFFSET 10.4683 2.1257 -3.5189
              CHANNELS 6 Xposition Yposition Zposition Zrotation Xrotation Yrotation
              JOINT b_RightArm
              {
                OFFSET 7.3453 -0.0000 -0.0000
                CHANNELS 6 Xposition Yposition Zposition Zrotation Xrotation Yrotation
                JOINT b_RightForeArm
                {
                  OFFSET 23.3863 0.0000 0.0000
                  CHANNELS 6 Xposition Yposition Zposition Zrotation Xrotation Yrotation
                  JOINT b_RightHand
                  {
                    OFFSET 21.5040 0.0000 0.0000
                    CHANNELS 6 Xposition Yposition Zposition Zrotation Xrotation Yrotation
                    JOINT b_RightFinger
                    {
                      OFFSET 1.5926 6.2126 0.0138
                      CHANNELS 6 Xposition Yposition Zposition Zrotation Xrotation Yrotation
                      JOINT Bip01_R_Finger0Nub
                      {
                        OFFSET 23.3657 0.0000 0.0000
                        CHANNELS 6 Xposition Yposition Zposition Zrotation Xrotation Yrotation
                        End Site
                        {
                          OFFSET 0 0 0
                        }
                      }
                    }
                  }
                }
                JOINT Dog_RightArmor002
                {
                  OFFSET 4.2034 4.4457 -12.7351
                  CHANNELS 6 Xposition Yposition Zposition Zrotation Xrotation Yrotation
                  End Site
                  {
                    OFFSET 0 0 0
                  }
                }
              }
            }
          }
        }
      }
    }
    JOINT b_Tail001
    {
      OFFSET -4.7889 3.8598 0.8608
      CHANNELS 6 Xposition Yposition Zposition Zrotation Xrotation Yrotation
      JOINT b_Tail002
      {
        OFFSET 4.2212 0.0000 -0.0000
        CHANNELS 6 Xposition Yposition Zposition Zrotation Xrotation Yrotation
        JOINT b_Tail003
        {
          OFFSET 4.9750 0.0000 -0.0000
          CHANNELS 6 Xposition Yposition Zposition Zrotation Xrotation Yrotation
          JOINT b_Tail004
          {
            OFFSET 4.7171 -0.0000 0.0000
            CHANNELS 6 Xposition Yposition Zposition Zrotation Xrotation Yrotation
            JOINT b_Tail005
            {
              OFFSET 9.7173 -0.0000 -0.0001
              CHANNELS 6 Xposition Yposition Zposition Zrotation Xrotation Yrotation
              JOINT b_Tail006
              {
                OFFSET 8.2617 0.0001 0.0000
                CHANNELS 6 Xposition Yposition Zposition Zrotation Xrotation Yrotation
                JOINT b_Tail007
                {
                  OFFSET 9.7599 -0.0001 0.0000
                  CHANNELS 6 Xposition Yposition Zposition Zrotation Xrotation Yrotation
                  JOINT b_Tail008
                  {
                    OFFSET 11.1530 0.0000 -0.0000
                    CHANNELS 6 Xposition Yposition Zposition Zrotation Xrotation Yrotation
                    JOINT b_Tail009
                    {
                      OFFSET 10.3039 0.0000 0.0000
                      CHANNELS 6 Xposition Yposition Zposition Zrotation Xrotation Yrotation
                      End Site
                      {
                        OFFSET 0 0 0
                      }
                    }
                  }
                }
              }
            }
          }
        }
      }
    }
    JOINT Dog_LeftTail001
    {
      OFFSET -11.9878 -1.7857 10.1900
      CHANNELS 6 Xposition Yposition Zposition Zrotation Xrotation Yrotation
      JOINT Dog_LeftTail002
      {
        OFFSET 8.4424 0.0000 0.0000
        CHANNELS 6 Xposition Yposition Zposition Zrotation Xrotation Yrotation
        JOINT Dog_LeftTail003
        {
          OFFSET 9.9501 0.0000 -0.0000
          CHANNELS 6 Xposition Yposition Zposition Zrotation Xrotation Yrotation
          JOINT Dog_LeftTail004
          {
            OFFSET 9.4342 0.0000 -0.0000
            CHANNELS 6 Xposition Yposition Zposition Zrotation Xrotation Yrotation
            JOINT Dog_LeftTail005
            {
              OFFSET 9.7173 0.0001 0.0001
              CHANNELS 6 Xposition Yposition Zposition Zrotation Xrotation Yrotation
              JOINT Dog_LeftTail006
              {
                OFFSET 8.2618 -0.0000 -0.0000
                CHANNELS 6 Xposition Yposition Zposition Zrotation Xrotation Yrotation
                JOINT Dog_LeftTail007
                {
                  OFFSET 9.7599 0.0000 0.0000
                  CHANNELS 6 Xposition Yposition Zposition Zrotation Xrotation Yrotation
                  JOINT Dog_LeftTail008
                  {
                    OFFSET 11.1529 -0.0001 -0.0001
                    CHANNELS 6 Xposition Yposition Zposition Zrotation Xrotation Yrotation
                    JOINT Dog_LeftTail009
                    {
                      OFFSET 10.3039 -0.0000 0.0000
                      CHANNELS 6 Xposition Yposition Zposition Zrotation Xrotation Yrotation
                      End Site
                      {
                        OFFSET 0 0 0
                      }
                    }
                  }
                }
              }
            }
          }
        }
      }
    }
    JOINT b_LeftLegUpper
    {
      OFFSET -0.0000 0.0000 9.9422
      CHANNELS 6 Xposition Yposition Zposition Zrotation Xrotation Yrotation
      JOINT b_LeftLeg
      {
        OFFSET 25.9795 0.0000 0.0000
        CHANNELS 6 Xposition Yposition Zposition Zrotation Xrotation Yrotation
        JOINT b_LeftLeg1
        {
          OFFSET 21.2087 0.0000 -0.0000
          CHANNELS 6 Xposition Yposition Zposition Zrotation Xrotation Yrotation
          JOINT b_LeftAnkle
          {
            OFFSET 10.4341 -0.0000 0.0000
            CHANNELS 6 Xposition Yposition Zposition Zrotation Xrotation Yrotation
            JOINT b_LeftToe
            {
              OFFSET 5.6676 6.5983 -0.0000
              CHANNELS 6 Xposition Yposition Zposition Zrotation Xrotation Yrotation
              JOINT Bip01_L_Toe0Nub
              {
                OFFSET 8.6279 -0.0000 0.0000
                CHANNELS 6 Xposition Yposition Zposition Zrotation Xrotation Yrotation
                End Site
                {
                  OFFSET 0 0 0
                }
              }
            }
            JOINT b_LeftToe002
            {
              OFFSET 5.6741 -2.3619 -0.5306
              CHANNELS 6 Xposition Yposition Zposition Zrotation Xrotation Yrotation
              End Site
              {
                OFFSET 0 0 0
              }
            }
          }
        }
      }
      JOINT Dog_LeftArmor001
      {
        OFFSET -2.6287 -3.4254 -3.1462
        CHANNELS 6 Xposition Yposition Zposition Zrotation Xrotation Yrotation
        End Site
        {
          OFFSET 0 0 0
        }
      }
    }
    JOINT b_RightLegUpper
    {
      OFFSET 0.0000 -0.0000 -9.9422
      CHANNELS 6 Xposition Yposition Zposition Zrotation Xrotation Yrotation
      JOINT b_RightLeg
      {
        OFFSET 25.9795 0.0000 0.0000
        CHANNELS 6 Xposition Yposition Zposition Zrotation Xrotation Yrotation
        JOINT b_RightLeg1
        {
          OFFSET 21.2087 0.0000 0.0000
          CHANNELS 6 Xposition Yposition Zposition Zrotation Xrotation Yrotation
          JOINT b_RightAnkle
          {
            OFFSET 10.4341 -0.0000 -0.0000
            CHANNELS 6 Xposition Yposition Zposition Zrotation Xrotation Yrotation
            JOINT b_RightToe
            {
              OFFSET 5.6676 6.5983 -0.0000
              CHANNELS 6 Xposition Yposition Zposition Zrotation Xrotation Yrotation
              JOINT Bip01_R_Toe0Nub
              {
                OFFSET 8.6279 -0.0000 0.0000
                CHANNELS 6 Xposition Yposition Zposition Zrotation Xrotation Yrotation
                End Site
                {
                  OFFSET 0 0 0
                }
              }
            }
            JOINT b_RightToe002
            {
              OFFSET 5.6741 -2.3620 0.5304
              CHANNELS 6 Xposition Yposition Zposition Zrotation Xrotation Yrotation
              End Site
              {
                OFFSET 0 0 0
              }
            }
          }
        }
      }
      JOINT Dog_RightArmor001
      {
        OFFSET -2.6288 -3.4254 3.1460
        CHANNELS 6 Xposition Yposition Zposition Zrotation Xrotation Yrotation
        End Site
        {
          OFFSET 0 0 0
        }
      }
    }
  }
}
MOTION
Frames: 4
Frame Time: 0.00833333
24.8227 58.3698 656.069 83.8846 -1.85768 -169.89 53.2821 -6.35e-05 8.19533 -90 -81.2558 -180 0 0 0 -89.9999 -4.1675e-14 -90 10.4409 -1.622 1.78e-05 -1.73125 -0.944302 -2.1196 8.8514 -0.0089989 1.77636e-15 -6.58088 2.31486 2.87726 11.3035 -0.0087814 0 -5.61588 6.58875 0.873616 11.0297 -0.0113029 0 -1.3347 4.01773 -2.46505 14.948 -3.19349 8.6e-06 -29.5571 -4.76118 -6.53449 5.49578 -0.0042877 3.55271e-15 3.28495 -14.4805 -2.51306 5.52657 -0.0048637 0 8.43119 -7.93801 8.37916 6.10934 -5.68434e-14 -2.84217e-14 40.3836 5.01845 -8.82863 28.6688 0 -1.42109e-14 -0 0 7.95139e-16 0.607494 2.35752 -7.6e-06 -156.427 -0.000147608 180 10.4683 2.1257 3.51896 -171.3 9.74396 -93.3703 7.34534 -7.10543e-15 1.9e-06 37.4496 -88.0871 129.407 23.3863 -1.9e-06 1e-06 -0.940803 -0.593735 -1.25164 21.504 -1.13687e-13 -3.55271e-15 -90.5546 -5.88953 0.498168 1.59262 6.21256 -0.0138378 -0.194486 -7.57622 -5.9228 23.3657 -3.55271e-15 1e-06 -3.97569e-16 1.19271e-15 7.95139e-16 4.20345 4.44573 12.7354 172.377 0.21838 -87.1877 10.4683 2.12572 -3.51895 -179.561 6.07316 87.0014 7.34534 1.42109e-14 -1.9e-06 -38.9595 66.2745 -45.6928 23.3863 1.9e-06 0 -17.8176 3.18055e-15 1.78906e-15 21.504 3.8e-06 1e-06 -101.662 -14.8843 18.8367 1.59262 6.21257 0.0138388 -14.8634 -4.7209 2.39431 23.3657 0 1e-06 180 1.27222e-14 4.77083e-15 4.20337 4.4457 -12.7351 172.377 -0.218352 87.1876 -4.78895 3.85983 0.86083 127.843 5.45751 13.0493 4.22117 3.815e-05 -5.7e-06 -17.0313 -8.17749 4.06149 4.97505 3.8e-06 -6.7e-06 -48.6896 -12.405 9.23096 4.7171 -1.145e-05 2.86e-05 -0 0 3.18055e-15 9.71734 -4.2e-05 -5.72e-05 -3.18055e-15 3.18055e-15 -4.77083e-15 8.26175 8.01e-05 5.7e-06 3.18055e-15 3.18055e-15 -1.59028e-15 9.75986 -6.48e-05 2.86e-05 -3.18055e-15 9.54166e-15 -4.77083e-15 11.153 2.67e-05 -2.1e-05 3.18055e-15 6.36111e-15 -4.77083e-15 10.3039 1.14e-05 4.2e-05 -3.18055e-15 0 -3.18055e-15 -11.9878 -1.78568 10.19 170.606 3.62573 1.11034 8.44238 1.53e-05 4.2e-05 2.98177e-16 1.38217e-16 -0 9.95005 7.6e-06 -2.86e-05 1.98785e-16 -6.58474e-16 9.93923e-17 9.43418 0 -4.58e-05 1.98785e-16 -2.59352e-16 -0 9.71733 6.87e-05 0.0001106 1.98785e-16 -2.60905e-16 -0 8.26175 -2.29e-05 -4.77e-05 1.98785e-16 1.38217e-16 -9.93923e-17 9.75994 2.86e-05 3.05e-05 1.98785e-16 1.38217e-16 -9.93923e-17 11.1529 -7.25e-05 -5.91e-05 1.98785e-16 1.38217e-16 -9.93923e-17 10.3039 -7.6e-06 3.55271e-15 9.93923e-17 5.3734e-16 -9.93923e-17 -1.14e-05 1.53e-05 9.94222 -103.764 11.7875 -172.565 25.9795 1e-06 0 -42.6835 -0.192269 -1.19536 21.2087 1.9e-06 -1e-06 54.3253 9.75849 -11.5673 10.4341 -1.9e-06 1e-06 -13.531 -2.73465 4.40941 5.66763 6.59832 -1.77636e-15 91.7883 15.1009 -6.72011 8.62785 0 0 -180 1.3977e-13 -3.33958e-14 5.67414 -2.36194 -0.530567 -75.8081 4.38708 5.33411 -2.62874 -3.42539 -3.14618 29.7499 1.82752 90.2264 1.53e-05 -1.53e-05 -9.94222 -103.311 -14.6243 175.753 25.9795 0 1e-06 -37.0584 -0.160511 2.59241 21.2087 0 1.9e-06 55.1965 -14.1241 12.7501 10.4341 -1.9e-06 -1e-06 -13.6301 8.15158 -5.05656 5.66763 6.59831 0 85.2117 1.54693 -0.725212 8.62785 -3.55271e-15 2.84217e-14 -7.95139e-16 -5.46658e-16 -0 5.67412 -2.36198 0.530355 -75.808 -4.38692 -5.33418 -2.62878 -3.42545 3.14601 29.7498 -1.82753 -90.2266
24.8227 58.3698 656.069 83.8846 -1.85768 -169.89 53.2821 -6.35e-05 8.19533 -90 -81.2558 -180 0 0 0 -89.9999 -4.1675e-14 -90 10.4409 -1.622 1.78e-05 -1.73125 -0.944302 -2.1196 8.8514 -0.0089989 1.77636e-15 -6.58088 2.31486 2.87726 11.3035 -0.0087814 0 -5.61588 6.58875 0.873616 11.0297 -0.0113029 0 -1.3347 4.01773 -2.46505 14.948 -3.19349 8.6e-06 -29.5571 -4.76118 -6.53449 5.49578 -0.0042877 3.55271e-15 3.28495 -14.4805 -2.51306 5.52657 -0.0048637 0 8.43119 -7.93801 8.37916 6.10934 -5.68434e-14 -2.84217e-14 40.3836 5.01845 -8.82863 28.6688 0 -1.42109e-14 -0 0 7.95139e-16 0.607494 2.35752 -7.6e-06 -156.427 -0.000147608 180 10.4683 2.1257 3.51896 -171.3 9.74396 -93.3703 7.34534 -7.10543e-15 1.9e-06 37.4496 -88.0871 129.407 23.3863 -1.9e-06 1e-06 -0.940803 -0.593735 -1.25164 21.504 -1.13687e-13 -3.55271e-15 -90.5546 -5.88953 0.498168 1.59262 6.21256 -0.0138378 -0.194486 -7.57622 -5.9228 23.3657 -3.55271e-15 1e-06 -3.97569e-16 1.19271e-15 7.95139e-16 4.20345 4.44573 12.7354 172.377 0.21838 -87.1877 10.4683 2.12572 -3.51895 -179.561 6.07316 87.0014 7.34534 1.42109e-14 -1.9e-06 -38.9595 66.2745 -45.6928 23.3863 1.9e-06 0 -17.8176 3.18055e-15 1.78906e-15 21.504 3.8e-06 1e-06 -101.662 -14.8843 18.8367 1.59262 6.21257 0.0138388 -14.8634 -4.7209 2.39431 23.3657 0 1e-06 180 1.27222e-14 4.77083e-15 4.20337 4.4457 -12.7351 172.377 -0.218352 87.1876 -4.78895 3.85983 0.86083 127.843 5.45751 13.0493 4.22117 3.815e-05 -5.7e-06 -17.0313 -8.17749 4.06149 4.97505 3.8e-06 -6.7e-06 -48.6896 -12.405 9.23096 4.7171 -1.145e-05 2.86e-05 -0 0 3.18055e-15 9.71734 -4.2e-05 -5.72e-05 -3.18055e-15 3.18055e-15 -4.77083e-15 8.26175 8.01e-05 5.7e-06 3.18055e-15 3.18055e-15 -1.59028e-15 9.75986 -6.48e-05 2.86e-05 -3.18055e-15 9.54166e-15 -4.77083e-15 11.153 2.67e-05 -2.1e-05 3.18055e-15 6.36111e-15 -4.77083e-15 10.3039 1.14e-05 4.2e-05 -3.18055e-15 0 -3.18055e-15 -11.9878 -1.78568 10.19 170.606 3.62573 1.11034 8.44238 1.53e-05 4.2e-05 2.98177e-16 1.38217e-16 -0 9.95005 7.6e-06 -2.86e-05 1.98785e-16 -6.58474e-16 9.93923e-17 9.43418 0 -4.58e-05 1.98785e-16 -2.59352e-16 -0 9.71733 6.87e-05 0.0001106 1.98785e-16 -2.60905e-16 -0 8.26175 -2.29e-05 -4.77e-05 1.98785e-16 1.38217e-16 -9.93923e-17 9.75994 2.86e-05 3.05e-05 1.98785e-16 1.38217e-16 -9.93923e-17 11.1529 -7.25e-05 -5.91e-05 1.98785e-16 1.38217e-16 -9.93923e-17 10.3039 -7.6e-06 3.55271e-15 9.93923e-17 5.3734e-16 -9.93923e-17 -1.14e-05 1.53e-05 9.94222 -103.764 11.7875 -172.565 25.9795 1e-06 0 -42.6835 -0.192269 -1.19536 21.2087 1.9e-06 -1e-06 54.3253 9.75849 -11.5673 10.4341 -1.9e-06 1e-06 -13.531 -2.73465 4.40941 5.66763 6.59832 -1.77636e-15 91.7883 15.1009 -6.72011 8.62785 0 0 -180 1.3977e-13 -3.33958e-14 5.67414 -2.36194 -0.530567 -75.8081 4.38708 5.33411 -2.62874 -3.42539 -3.14618 29.7499 1.82752 90.2264 1.53e-05 -1.53e-05 -9.94222 -103.311 -14.6243 175.753 25.9795 0 1e-06 -37.0584 -0.160511 2.59241 21.2087 0 1.9e-06 55.1965 -14.1241 12.7501 10.4341 -1.9e-06 -1e-06 -13.6301 8.15158 -5.05656 5.66763 6.59831 0 85.2117 1.54693 -0.725212 8.62785 -3.55271e-15 2.84217e-14 -7.95139e-16 -5.46658e-16 -0 5.67412 -2.36198 0.530355 -75.808 -4.38692 -5.33418 -2.62878 -3.42545 3.14601 29.7498 -1.82753 -90.2266
22.3329 58.0832 656.408 91.0617 4.91817 -168.137 53.2821 -6.35e-05 8.19533 -90 -81.2558 -180 0 0 0 -89.9999 -7.98417e-14 -90 10.4409 -1.622 1.78e-05 -1.90637 -0.988626 -2.28095 8.8514 -0.0089989 0 -6.41906 2.30365 2.88768 11.3035 -0.0087814 -7.10543e-15 -5.66739 6.61594 0.933011 11.0297 -0.0113029 0 -1.44053 4.09229 -2.41041 14.948 -3.19349 8.6e-06 -29.5692 -7.68539 -5.67577 5.49578 -0.0042877 0 2.71436 -11.83 -3.48499 5.52657 -0.0048637 -1.42109e-14 8.45901 -7.52363 8.64437 6.10934 0 1.42109e-14 40.3877 5.4184 -8.43854 28.6688 -1.42109e-14 0 -1.46555e-33 -4.22417e-16 -1.98785e-16 0.607494 2.35752 -7.6e-06 -156.427 -0.000147608 180 10.4683 2.1257 3.51896 -171.369 10.0093 -93.3924 7.34534 7.10543e-15 1.9e-06 29.756 -88.1454 121.522 23.3863 -1.9e-06 1e-06 -0.92435 -0.594095 -1.25147 21.504 0 0 -90.8304 -5.89184 0.469862 1.59262 6.21256 -0.0138378 -0.458294 -7.91134 -5.97857 23.3657 0 1e-06 -1.59028e-15 3.08116e-15 1.59028e-15 4.20345 4.44573 12.7354 172.377 0.21838 -87.1877 10.4683 2.12572 -3.51895 179.676 5.96419 86.922 7.34534 0 -1.9e-06 -38.1639 65.323 -46.2942 23.3863 1.9e-06 -2.84217e-14 -17.9868 -3.18055e-15 1.78906e-15 21.504 3.8e-06 1e-06 -101.557 -14.9412 19.3367 1.59262 6.21257 0.0138388 -17.0527 -5.93905 2.64945 23.3657 5.68434e-14 1e-06 180 1.43125e-14 1.74931e-14 4.20337 4.4457 -12.7351 172.377 -0.218352 87.1876 -4.78895 3.85983 0.86083 127.614 5.25881 12.4954 4.22117 3.815e-05 -5.7e-06 -17.3726 -9.04334 2.61129 4.97505 3.8e-06 -6.7e-06 -48.5235 -13.2961 9.4121 4.7171 -1.145e-05 2.86e-05 3.18055e-15 0 -0 9.71734 -4.2e-05 -5.72e-05 6.36111e-15 6.36111e-15 1.59028e-15 8.26175 8.01e-05 5.7e-06 3.18055e-15 3.18055e-15 -1.59028e-15 9.75986 -6.48e-05 2.86e-05 3.18055e-15 3.18055e-15 1.59028e-15 11.153 2.67e-05 -2.1e-05 -0 0 -0 10.3039 1.14e-05 4.2e-05 3.18055e-15 0 -0 -11.9878 -1.78568 10.19 170.606 3.62573 1.11034 8.44238 1.53e-05 4.2e-05 3.97569e-16 -8.94531e-16 -0 9.95005 7.6e-06 -2.86e-05 9.65542e-33 6.95746e-16 -7.95139e-16 9.43418 7.10543e-15 -4.58e-05 -0 7.45443e-16 -0 9.71733 6.87e-05 0.0001106 -3.97569e-16 6.95746e-16 -7.95139e-16 8.26175 -2.29e-05 -4.77e-05 -3.97569e-16 1.54058e-15 7.95139e-16 9.75994 2.86e-05 3.05e-05 -3.97569e-16 6.95746e-16 -7.95139e-16 11.1529 -7.25e-05 -5.91e-05 -3.97569e-16 1.54058e-15 7.95139e-16 10.3039 -7.6e-06 2.13163e-14 -3.97569e-16 6.95746e-16 -7.95139e-16 -1.14e-05 1.53e-05 9.94222 -103.68 11.8575 -172.676 25.9795 1e-06 0 -42.5676 -0.194686 -1.19497 21.2087 1.9e-06 -1e-06 54.3981 9.64305 -11.3684 10.4341 -1.9e-06 1e-06 -13.5875 -2.73899 4.40671 5.66763 6.59832 0 91.8411 15.3404 -7.32864 8.62785 3.55271e-15 0 -180 -1.46852e-13 2.98177e-15 5.67414 -2.36194 -0.530567 -75.8081 4.38708 5.33411 -2.62874 -3.42539 -3.14618 29.7499 1.82752 90.2264 1.53e-05 -1.53e-05 -9.94222 -103.476 -14.6322 175.612 25.9795 1.13687e-13 1e-06 -37.1965 -0.166764 2.59202 21.2087 0 1.9e-06 55.3563 -14.6733 13.1068 10.4341 -1.9e-06 -1e-06 -13.6565 8.44056 -5.02938 5.66763 6.59831 -7.10543e-15 85.1996 1.34989 -0.923971 8.62785 0 0 -9.93923e-17 -1.86361e-16 -0 5.67412 -2.36198 0.530355 -75.808 -4.38692 -5.33418 -2.62878 -3.42545 3.14601 29.7498 -1.82753 -90.2266
22.2914 58.0732 656.412 91.0314 4.71825 -168.208 53.2821 -6.35e-05 8.19533 -90 -81.2558 -180 0 0 0 -89.9999 -4.1675e-14 -90 10.4409 -1.622 1.78e-05 -1.83591 -1.06024 -2.40686 8.8514 -0.0089989 1.42109e-14 -6.41013 2.28843 2.80712 11.3035 -0.0087814 0 -5.66195 6.63329 0.936626 11.0297 -0.0113029 3.55271e-15 -1.44292 4.10185 -2.40295 14.948 -3.19349 8.6e-06 -29.64 -7.72251 -5.62962 5.49578 -0.0042877 1.42109e-14 2.74707 -11.8863 -3.51926 5.52657 -0.0048637 -1.06581e-14 8.4667 -7.53944 8.64947 6.10934 0 -1.42109e-14 40.3819 5.41678 -8.43537 28.6688 -2.84217e-14 0 -8.10366e-33 -1.16786e-15 -3.97569e-16 0.607494 2.35752 -7.6e-06 -156.427 -0.000147608 180 10.4683 2.1257 3.51896 -171.378 9.99455 -93.3944 7.34534 0 1.9e-06 29.3698 -88.1638 121.149 23.3863 -1.9e-06 1e-06 -0.914682 -0.594306 -1.25137 21.504 -1.13687e-13 0 -90.821 -5.89177 0.470824 1.59262 6.21256 -0.0138378 -0.445926 -7.91878 -5.97608 23.3657 0 1e-06 -7.95139e-16 -9.93923e-17 1.59028e-15 4.20345 4.44573 12.7354 172.377 0.21838 -87.1877 10.4683 2.12572 -3.51895 179.686 5.96676 86.9179 7.34534 0 -1.9e-06 -38.1656 65.3412 -46.2873 23.3863 1.9e-06 0 -18 3.18055e-15 3.18055e-15 21.504 3.8e-06 1e-06 -101.538 -14.9065 19.3361 1.59262 6.21257 0.0138388 -17.0612 -5.93581 2.65063 23.3657 0 1e-06 180 -2.38542e-15 -6.36111e-15 4.20337 4.4457 -12.7351 172.377 -0.218352 87.1876 -4.78895 3.85983 0.86083 127.487 5.10756 11.9444 4.22117 3.815e-05 -5.7e-06 -17.6754 -9.86404 1.29517 4.97505 3.8e-06 -6.7e-06 -48.5526 -12.4091 9.59713 4.7171 -1.145e-05 2.86e-05 -3.18055e-15 6.36111e-15 4.77083e-15 9.71734 -4.2e-05 -5.72e-05 -3.18055e-15 0 1.59028e-15 8.26175 8.01e-05 5.7e-06 3.18055e-15 0 1.59028e-15 9.75986 -6.48e-05 2.86e-05 -0 -6.36111e-15 -0 11.153 2.67e-05 -2.1e-05 8.82781e-32 3.18055e-15 -1.59028e-15 10.3039 1.14e-05 4.2e-05 3.18055e-15 6.36111e-15 1.59028e-15 -11.9878 -1.78568 10.19 170.606 3.62573 1.11034 8.44238 1.53e-05 4.2e-05 7.95139e-16 1.73937e-16 -7.95139e-16 9.95005 7.6e-06 -2.86e-05 3.7932e-33 2.73329e-16 -7.95139e-16 9.43418 0 -4.58e-05 -0 -3.23025e-16 -0 9.71733 6.87e-05 0.0001106 7.95139e-16 1.16786e-15 -7.95139e-16 8.26175 -2.29e-05 -4.77e-05 3.97569e-16 1.19271e-15 -0 9.75994 2.86e-05 3.05e-05 -0 4.96962e-16 -0 11.1529 -7.25e-05 -5.91e-05 -0 -2.23633e-16 -0 10.3039 -7.6e-06 -7.10543e-15 -0 -9.44227e-16 -0 -1.14e-05 1.53e-05 9.94222 -103.504 11.9577 -172.811 25.9795 1e-06 0 -42.5097 -0.195893 -1.19477 21.2087 1.9e-06 -1e-06 54.4094 9.52938 -11.2375 10.4341 -1.9e-06 1e-06 -13.6266 -2.742 4.40484 5.66763 6.59832 -1.42109e-14 91.8124 15.3277 -7.32835 8.62785 -3.55271e-15 0 -180 3.71734e-13 -4.96962e-15 5.67414 -2.36194 -0.530567 -75.8081 4.38708 5.33411 -2.62874 -3.42539 -3.14618 29.7499 1.82752 90.2264 1.53e-05 -1.53e-05 -9.94222 -103.527 -14.5685 175.466 25.9795 0 1e-06 -37.3365 -0.173099 2.5916 21.2087 0 1.9e-06 55.4604 -14.8283 13.267 10.4341 -1.9e-06 -1e-06 -13.6675 8.43038 -5.04859 5.66763 6.59831 -7.10543e-15 85.1847 1.36612 -0.942285 8.62785 -8.88178e-16 0 -1.50866e-34 -2.17421e-17 -3.97569e-16 5.67412 -2.36198 0.530356 -75.808 -4.38692 -5.33418 -2.62878 -3.42545 3.14601 29.7498 -1.82753 -90.2266
